<svg width="581" height="304" viewBox="0 0 581 304" fill="none" xmlns="http://www.w3.org/2000/svg">
<path d="M1.8 191.1C0.800001 190.7 0.700001 189.9 1.5 188.7C2.3 187.3 4.2 186.1 7.2 185.1C10.2 184.1 14.5 182.7 20.1 180.9C25.7 179.1 31.6 177.2 37.8 175.2C44.2 173.2 50.5 171.2 56.7 169.2C63.1 167.2 68.6 165.5 73.2 164.1C74.4 164.5 74.5 165.6 73.5 167.4C72.5 169.2 70.6 170.6 67.8 171.6C65.6 172.2 62.4 173.2 58.2 174.6C54 176 49.3 177.5 44.1 179.1C39.1 180.7 34 182.4 28.8 184.2C23.6 185.8 19 187.3 15 188.7C20.8 191.5 27.7 194.7 35.7 198.3C43.7 201.7 51.2 205.1 58.2 208.5C59.2 209.3 58.9 210.4 57.3 211.8C55.9 213.2 53.9 213.7 51.3 213.3C48.5 212.1 44.9 210.5 40.5 208.5C36.3 206.5 31.8 204.5 27 202.5C22.4 200.3 17.8 198.2 13.2 196.2C8.8 194.2 5 192.5 1.8 191.1ZM258.234 37.8C264.634 37.8 269.434 39.9 272.634 44.1C276.034 48.3 277.734 53.5 277.734 59.7C277.734 63.7 277.034 67.9 275.634 72.3C274.234 76.7 272.634 80.7 270.834 84.3C270.034 84.9 269.234 85.1 268.434 84.9C267.834 84.5 267.634 83.8 267.834 82.8C269.234 79.2 269.934 75.5 269.934 71.7C269.934 67.9 269.134 64.5 267.534 61.5C266.134 58.3 263.734 55.7 260.334 53.7C257.134 51.7 253.034 50.7 248.034 50.7C240.834 50.7 234.234 52.1 228.234 54.9C222.234 57.5 216.634 62.2 211.434 69C206.434 75.8 201.634 85.1 197.034 96.9C192.434 108.5 187.834 123.3 183.234 141.3C179.434 155.7 175.034 168.3 170.034 179.1C165.034 189.9 159.234 199 152.634 206.4C161.234 209.8 170.234 212.8 179.634 215.4C189.234 218 199.934 219.3 211.734 219.3C221.134 219.3 228.834 217.7 234.834 214.5C241.034 211.1 246.434 204.8 251.034 195.6C251.834 195.2 252.534 195.3 253.134 195.9C253.734 196.3 253.834 197 253.434 198C248.634 208.8 242.234 217 234.234 222.6C226.234 228.2 215.534 231 202.134 231C190.334 231 179.834 229.3 170.634 225.9C161.434 222.5 152.534 218.8 143.934 214.8C130.534 225.6 113.334 231 92.3344 231C84.7344 231 78.9344 229.5 74.9344 226.5C71.1344 223.3 69.2344 219.9 69.2344 216.3C69.2344 213.7 69.9344 211.1 71.3344 208.5C72.9344 205.7 75.1344 203.3 77.9344 201.3C80.9344 199.1 84.4344 197.3 88.4344 195.9C92.4344 194.5 96.9344 193.8 101.934 193.8C109.734 193.8 117.234 194.9 124.434 197.1C131.834 199.3 139.334 201.8 146.934 204.6C155.934 193 163.834 174.4 170.634 148.8C175.034 132.4 180.134 117.4 185.934 103.8C191.934 90 198.534 78.3 205.734 68.7C213.134 58.9 221.234 51.3 230.034 45.9C238.834 40.5 248.234 37.8 258.234 37.8ZM101.934 224.7C109.534 224.7 116.334 223.8 122.334 222C128.334 220.2 133.934 217.1 139.134 212.7C132.134 209.3 124.934 206.4 117.534 204C110.334 201.6 102.334 200.4 93.5344 200.4C87.9344 200.4 83.9344 201.3 81.5344 203.1C79.1344 204.9 77.9344 207.2 77.9344 210C77.9344 214 80.0344 217.5 84.2344 220.5C88.4344 223.3 94.3344 224.7 101.934 224.7ZM323.102 184.5C324.102 184.9 324.202 185.8 323.402 187.2C322.602 188.4 320.702 189.5 317.702 190.5C314.702 191.5 310.402 192.9 304.802 194.7C299.202 196.5 293.202 198.4 286.802 200.4C280.602 202.4 274.302 204.4 267.902 206.4C261.702 208.4 256.302 210.1 251.702 211.5C250.502 211.1 250.402 210 251.402 208.2C252.402 206.4 254.302 205 257.102 204C259.102 203.4 262.202 202.5 266.402 201.3C270.802 199.9 275.502 198.4 280.502 196.8C285.702 195 290.902 193.3 296.102 191.7C301.302 189.9 305.902 188.3 309.902 186.9C304.102 184.1 297.202 181 289.202 177.6C281.202 174 273.702 170.5 266.702 167.1C265.702 166.3 265.902 165.2 267.302 163.8C268.902 162.4 271.002 161.9 273.602 162.3C276.402 163.5 279.902 165.1 284.102 167.1C288.502 169.1 293.002 171.2 297.602 173.4C302.402 175.4 307.002 177.4 311.402 179.4C316.002 181.4 319.902 183.1 323.102 184.5ZM348.237 303.9H341.637V37.5H348.237V303.9ZM382.617 0.873047H430.225L471.387 97.2598L480.029 121.137H482.812L491.309 97.2598L532.471 0.873047H580.078V231H544.189V104.291L547.998 45.6973H546.387L489.551 175.189H473.145L414.697 45.6973H413.086L418.506 104.291V231H382.617V0.873047Z" fill="white"/>
</svg>
