<svg width="699" height="366" viewBox="0 0 699 366" fill="none" xmlns="http://www.w3.org/2000/svg">
<path d="M3 256.5C1.33333 255.833 1.16667 254.5 2.5 252.5C3.83334 250.167 7 248.167 12 246.5C17 244.833 24.1667 242.5 33.5 239.5C42.8333 236.5 52.6667 233.333 63 230C73.6667 226.667 84.1667 223.333 94.5 220C105.167 216.667 114.333 213.833 122 211.5C124 212.167 124.167 214 122.5 217C120.833 220 117.667 222.333 113 224C109.333 225 104 226.667 97 229C90 231.333 82.1667 233.833 73.5 236.5C65.1667 239.167 56.6667 242 48 245C39.3333 247.667 31.6667 250.167 25 252.5C34.6667 257.167 46.1667 262.5 59.5 268.5C72.8333 274.167 85.3333 279.833 97 285.5C98.6667 286.833 98.1667 288.667 95.5 291C93.1667 293.333 89.8333 294.167 85.5 293.5C80.8333 291.5 74.8333 288.833 67.5 285.5C60.5 282.167 53 278.833 45 275.5C37.3333 271.833 29.6667 268.333 22 265C14.6667 261.667 8.33334 258.833 3 256.5ZM303.191 129.5C309.391 129.5 314.391 131.7 318.191 136.1C321.991 140.3 323.891 145.5 323.891 151.7C323.891 155.7 322.991 160.4 321.191 165.8C319.391 171 317.491 175.3 315.491 178.7C314.691 179.3 313.791 179.4 312.791 179C311.991 178.6 311.691 177.9 311.891 176.9C313.091 173.3 313.591 169.7 313.391 166.1C313.191 162.5 312.191 159.2 310.391 156.2C308.591 153.2 305.791 150.8 301.991 149C298.391 147 293.791 146 288.191 146C280.591 146 273.991 147.4 268.391 150.2C262.991 152.8 257.991 157.5 253.391 164.3C248.791 170.9 244.491 179.8 240.491 191C236.491 202.2 232.391 216.2 228.191 233C221.191 259.8 211.491 280.5 199.091 295.1C208.091 298.5 217.491 301.6 227.291 304.4C237.291 307 248.291 308.3 260.291 308.3C270.291 308.3 277.891 306.5 283.091 302.9C288.291 299.3 292.591 294.1 295.991 287.3C296.791 286.7 297.491 286.7 298.091 287.3C298.891 287.7 299.191 288.5 298.991 289.7C294.191 300.5 287.791 308.8 279.791 314.6C271.791 320.2 261.091 323 247.691 323C235.891 323 225.091 321.3 215.291 317.9C205.691 314.3 196.291 310.5 187.091 306.5C172.491 317.5 154.591 323 133.391 323C125.391 323 119.391 321.6 115.391 318.8C111.391 316 109.391 312.5 109.391 308.3C109.391 305.7 110.291 302.9 112.091 299.9C114.091 296.9 116.791 294.1 120.191 291.5C123.591 288.9 127.591 286.7 132.191 284.9C136.991 283.1 142.291 282.2 148.091 282.2C155.491 282.2 162.691 283.2 169.691 285.2C176.891 287 184.191 289.3 191.591 292.1C194.991 286.5 198.291 279.5 201.491 271.1C204.691 262.7 207.891 252.4 211.091 240.2C215.691 223 221.191 207.6 227.591 194C233.991 180.2 241.091 168.6 248.891 159.2C256.891 149.6 265.391 142.3 274.391 137.3C283.591 132.1 293.191 129.5 303.191 129.5ZM146.891 315.2C154.091 315.2 160.491 314.5 166.091 313.1C171.891 311.5 177.091 308.5 181.691 304.1C174.291 300.9 166.791 298.1 159.191 295.7C151.591 293.3 143.491 292.1 134.891 292.1C125.691 292.1 121.091 295.2 121.091 301.4C121.091 305.4 123.291 308.7 127.691 311.3C132.291 313.9 138.691 315.2 146.891 315.2ZM422.332 245.5C423.999 246.167 424.165 247.667 422.832 250C421.499 252 418.332 253.833 413.332 255.5C408.332 257.167 401.165 259.5 391.832 262.5C382.499 265.5 372.499 268.667 361.832 272C351.499 275.333 340.999 278.667 330.332 282C319.999 285.333 310.999 288.167 303.332 290.5C301.332 289.833 301.165 288 302.832 285C304.499 282 307.665 279.667 312.332 278C315.665 277 320.832 275.5 327.832 273.5C335.165 271.167 342.999 268.667 351.332 266C359.999 263 368.665 260.167 377.332 257.5C385.999 254.5 393.665 251.833 400.332 249.5C390.665 244.833 379.165 239.667 365.832 234C352.499 228 339.999 222.167 328.332 216.5C326.665 215.167 326.999 213.333 329.332 211C331.999 208.667 335.499 207.833 339.832 208.5C344.499 210.5 350.332 213.167 357.332 216.5C364.665 219.833 372.165 223.333 379.832 227C387.832 230.333 395.499 233.667 402.832 237C410.499 240.333 416.999 243.167 422.332 245.5ZM464.223 444.5H453.223V0.49998H464.223V444.5ZM500.625 92.873H548.232L589.395 189.26L598.037 213.137H600.82L609.316 189.26L650.479 92.873H698.086V323H662.197V196.291L666.006 137.697H664.395L607.559 267.189H591.152L532.705 137.697H531.094L536.514 196.291V323H500.625V92.873Z" fill="white"/>
<path d="M469.277 362.258H729.434V383.498H469.277V362.258Z" fill="white"/>
</svg>
